<?xml version="1.0" standalone="no"?>
<!DOCTYPE svg PUBLIC "-//W3C//DTD SVG 20010904//EN"
 "http://www.w3.org/TR/2001/REC-SVG-20010904/DTD/svg10.dtd">
<svg version="1.0" xmlns="http://www.w3.org/2000/svg"
 width="700.000000pt" height="700.000000pt" viewBox="0 0 700.000000 700.000000"
 preserveAspectRatio="xMidYMid meet">
<metadata>
Created by potrace 1.11, written by Peter Selinger 2001-2013
</metadata>
<g transform="translate(0.000000,700.000000) scale(0.100000,-0.100000)"
fill="#000000" stroke="none">
<path d="M3489 6963 c0 -10 -2 -25 -4 -33 -2 -8 -15 -71 -30 -140 -15 -69 -29
-133 -31 -142 -9 -39 -30 -141 -39 -186 -2 -13 -6 -31 -9 -40 -3 -9 -7 -28
-10 -42 -2 -14 -32 -153 -66 -310 -34 -157 -74 -346 -90 -420 -16 -74 -34
-157 -40 -185 -7 -27 -14 -61 -16 -75 -3 -14 -11 -53 -19 -88 -20 -84 -27
-123 -29 -146 -1 -20 34 -47 249 -185 55 -35 110 -71 122 -79 21 -13 34 -6
220 113 109 70 199 128 200 129 1 0 -3 24 -8 51 -6 28 -12 61 -15 75 -3 14
-19 88 -36 165 -16 77 -32 149 -34 160 -4 22 -5 25 -29 135 -9 41 -19 86 -21
100 -3 14 -11 53 -19 86 -8 34 -16 73 -19 85 -8 44 -77 364 -86 399 -5 19 -11
49 -13 65 -3 17 -26 127 -52 245 -26 118 -50 227 -52 243 -6 32 -23 46 -24 20z"/>
<path d="M1036 5959 c4 -8 42 -66 82 -129 41 -63 98 -151 126 -195 29 -44 77
-118 107 -164 30 -47 77 -121 106 -165 28 -45 56 -86 62 -93 6 -7 11 -14 11
-17 0 -3 30 -51 68 -108 78 -122 86 -133 112 -173 10 -16 24 -35 29 -42 6 -7
11 -14 11 -16 0 -4 485 -756 665 -1032 159 -245 205 -317 205 -325 0 -5 -37
-67 -83 -137 -135 -207 -443 -683 -672 -1038 -55 -85 -188 -290 -295 -455
-107 -165 -200 -308 -205 -318 -11 -18 -95 -148 -212 -327 -90 -137 -125 -198
-110 -188 7 4 85 54 174 112 89 59 204 133 255 166 51 33 183 118 293 189 110
71 461 298 780 504 319 206 603 389 630 407 28 18 103 67 168 109 65 42 128
82 141 87 20 9 61 -14 355 -205 183 -119 337 -216 341 -216 5 0 10 -3 12 -8 2
-4 41 -32 88 -61 102 -65 271 -175 432 -280 65 -42 129 -83 142 -91 14 -8 167
-107 341 -220 174 -113 327 -212 340 -220 13 -8 104 -67 202 -130 232 -151
236 -153 227 -138 -4 7 -44 69 -89 138 -44 69 -96 150 -115 180 -19 30 -37 57
-40 60 -3 3 -26 37 -50 75 -48 77 -77 123 -234 363 -58 90 -106 165 -106 168
0 3 -5 10 -11 17 -6 7 -105 158 -220 337 -206 319 -271 419 -394 610 -252 388
-308 476 -317 495 -10 22 -16 11 187 325 23 36 167 259 320 495 153 237 315
486 359 555 45 69 97 150 116 180 19 30 38 60 42 65 9 11 35 51 188 290 57 88
131 203 165 255 116 179 191 295 199 308 11 18 10 17 -172 -101 -78 -50 -222
-144 -320 -207 -97 -62 -226 -146 -287 -185 -60 -40 -303 -197 -540 -350 -236
-153 -466 -301 -510 -330 -44 -28 -143 -92 -220 -142 -286 -184 -351 -226
-379 -245 -35 -25 -35 -25 -187 74 -63 42 -555 360 -1094 708 -539 348 -1025
662 -1080 698 -152 98 -149 96 -139 81z"/>
<path d="M1600 3844 c-135 -29 -258 -56 -275 -59 -16 -4 -68 -15 -115 -25 -47
-10 -96 -21 -110 -24 -78 -16 -320 -68 -350 -76 -19 -5 -48 -11 -65 -14 -16
-3 -41 -7 -55 -10 -36 -8 -50 -11 -190 -41 -115 -25 -148 -32 -175 -39 -5 -1
-61 -13 -123 -26 -61 -13 -112 -26 -112 -30 0 -4 332 -81 420 -97 8 -1 236
-50 505 -108 270 -58 499 -107 510 -110 11 -2 105 -22 209 -44 104 -23 190
-40 191 -39 4 5 241 372 249 386 8 14 -242 412 -259 411 -5 -1 -120 -25 -255
-55z"/>
<path d="M5007 3700 l-129 -200 63 -98 c150 -232 192 -297 194 -300 2 -2 22 2
46 7 24 6 141 31 259 56 118 26 267 57 330 71 63 14 201 43 305 65 105 22 219
47 255 55 36 8 85 19 110 24 25 5 86 18 135 29 50 11 104 22 120 25 17 3 82
17 145 31 63 15 123 27 132 28 30 2 9 15 -39 22 -57 10 -37 6 -214 44 -79 17
-160 36 -179 41 -19 5 -48 11 -65 14 -24 4 -265 55 -335 71 -8 2 -51 11 -95
20 -44 9 -87 18 -95 20 -21 5 -350 76 -375 81 -11 2 -81 17 -155 33 -74 16
-146 32 -160 35 -14 2 -45 9 -70 15 -25 6 -47 11 -50 11 -3 0 -63 -90 -133
-200z"/>
<path d="M3298 1992 l-197 -127 5 -35 c3 -19 10 -48 14 -65 5 -16 11 -41 14
-55 4 -21 49 -236 61 -290 2 -8 13 -60 25 -115 12 -55 23 -107 25 -115 4 -21
36 -171 41 -195 2 -11 42 -198 89 -415 47 -217 93 -429 101 -470 21 -98 28
-105 39 -40 3 19 15 76 26 125 12 50 22 97 24 105 2 9 53 249 115 535 133 618
170 791 176 825 3 14 14 63 24 110 18 80 18 86 2 101 -18 17 -376 249 -383
249 -2 -1 -93 -58 -201 -128z"/>
</g>
</svg>
